<?xml version="1.0" encoding="utf-8"?>
<svg viewBox="0 0 495.079 159.449" xmlns="http://www.w3.org/2000/svg">
  <defs>
    <clipPath clipPathUnits="userSpaceOnUse" id="clipPath18">
      <path d="M 0,393 H 523 V 0 H 0 Z" id="path16"/>
    </clipPath>
  </defs>
  <g id="g10" transform="matrix(1.333333, 0, 0, -1.333333, 4.679888, 461.347198)">
    <g id="g12" style="" transform="matrix(0.755836, 0, 0, 0.755836, -18.090082, 93.675758)">
      <g id="g14" clip-path="url(#clipPath18)">
        <g id="g20" transform="translate(95.1741,215.3654)">
          <path d="m 0,0 c 0,5.893 0.065,21.643 -0.082,23.582 0.131,23.436 -16.909,39.96 -27.67,38.671 -7.453,-0.65 -13.692,-3.683 -17.044,-12.424 -3.104,-8.14 -0.325,-18.968 9.997,-21.512 11.049,-2.73 17.495,-4.995 22.163,-8.206 C -6.917,16.194 -2.253,8.7 -2.129,-0.01 Z" style="fill:#0060af;fill-opacity:1;fill-rule:nonzero;stroke:none" id="path22"/>
        </g>
        <g id="g24" transform="translate(41.9661,196.6262)">
          <path d="m 0,0 c 19.411,-9.131 38.779,-13.746 57.611,-13.746 19.985,0 39.857,4.371 57.536,12.647 8.79,18.668 13.241,37.886 13.241,57.09 0,19.282 -4.646,39.338 -13.436,58.057 -19.135,8.995 -39.127,13.767 -57.845,13.767 -20.083,0 -39.348,-4.263 -57.275,-12.673 C -8.774,96.824 -13.156,77.613 -13.156,58.039 -13.156,38.422 -8.606,18.361 0,0 m 57.611,-16.876 c -19.465,0 -39.478,4.792 -59.458,14.283 l -0.493,0.237 -0.232,0.504 c -8.97,18.928 -13.714,39.636 -13.714,59.891 0,20.224 4.549,40.047 13.518,58.95 l 0.25,0.502 0.503,0.251 c 18.486,8.763 38.373,13.193 59.122,13.193 19.341,0 39.988,-4.94 59.702,-14.299 l 0.509,-0.232 0.233,-0.509 c 9.137,-19.278 13.958,-39.983 13.958,-59.904 0,-19.844 -4.625,-39.677 -13.779,-58.948 l -0.244,-0.504 -0.504,-0.238 C 98.784,-12.316 78.247,-16.876 57.611,-16.876" style="fill:#0060af;fill-opacity:1;fill-rule:nonzero;stroke:none" id="path26"/>
        </g>
        <g id="g28" transform="translate(90.5592,215.3558)">
          <path d="m 0,0 c 0.038,7.549 -4.175,14.233 -9.684,17.818 -4.89,3.174 -11.455,5.255 -22.032,7.94 -3.277,0.834 -6.694,2.697 -7.751,5.065 -2.806,-2.822 -3.315,-9.17 -2.822,-12.885 0.575,-4.29 5.59,-11.363 13.145,-11.644 4.614,-0.185 10.448,0.995 13.242,1.591 4.826,1.041 12.458,-1.982 13.676,-7.875 z" style="fill:#0060af;fill-opacity:1;fill-rule:nonzero;stroke:none" id="path30"/>
        </g>
        <g id="g32" transform="translate(99.0733,314.1351)">
          <path d="m 0,0 c -12.803,0 -23.869,-8.449 -23.831,-23.063 0.044,-12.294 9.922,-18.875 13.448,-23.571 5.336,-7.084 8.223,-15.468 8.52,-28.294 0.238,-10.213 0.222,-20.288 0.276,-23.863 h 2.822 c -0.048,3.738 -0.173,14.44 -0.027,24.178 0.195,12.835 3.185,20.895 8.514,27.979 3.553,4.696 13.432,11.277 13.453,23.571 C 23.225,-8.449 12.171,0 -0.633,0" style="fill:#0060af;fill-opacity:1;fill-rule:nonzero;stroke:none" id="path34"/>
        </g>
        <g id="g36" transform="translate(102.3235,215.3654)">
          <path d="M 0,0 C 0,5.893 -0.065,21.643 0.081,23.582 -0.044,47.018 16.984,63.542 27.752,62.253 35.199,61.603 41.438,58.57 44.797,49.829 47.9,41.689 45.105,30.861 34.793,28.317 23.744,25.587 17.304,23.322 12.625,20.111 6.911,16.194 2.573,8.7 2.442,-0.01 Z" style="fill:#0060af;fill-opacity:1;fill-rule:nonzero;stroke:none" id="path38"/>
        </g>
        <g id="g40" transform="translate(106.9377,215.3558)">
          <path d="m 0,0 c -0.043,7.549 4.176,14.233 9.668,17.818 4.907,3.174 11.471,5.255 22.049,7.94 3.277,0.834 6.694,2.697 7.734,5.065 2.821,-2.822 3.331,-9.17 2.833,-12.885 C 41.699,13.648 36.694,6.575 29.155,6.294 24.54,6.109 18.674,7.289 15.896,7.885 11.087,8.926 3.429,5.903 2.21,0.01 Z" style="fill:#0060af;fill-opacity:1;fill-rule:nonzero;stroke:none" id="path42"/>
        </g>
        <g id="g44" transform="translate(112.6085,198.6462)">
          <path d="M 0,0 C 0.525,0.082 1.234,0.147 1.527,0.645 1.69,0.976 1.885,1.236 1.755,1.978 1.593,2.855 1.305,3.397 0.195,3.18 l -1.04,-0.163 0.412,-3.066 z m 0.829,-5.53 c 0.471,0.072 0.948,0.098 1.321,0.332 0.563,0.368 0.515,1.163 0.434,1.754 -0.196,1.3 -0.537,1.797 -1.913,1.587 L -0.19,-1.988 0.357,-5.594 Z M -1.722,-7.669 -3.358,4.295 0.607,4.891 C 1.565,5.022 2.735,4.854 3.206,4.253 3.726,3.618 3.883,3.099 3.986,2.275 4.127,1.252 3.84,0.066 2.687,-0.519 v -0.038 c 1.283,0 2.063,-0.922 2.285,-2.481 C 5.01,-3.363 5.102,-4.159 5.01,-4.83 4.744,-6.407 3.802,-6.911 2.216,-7.132 Z" style="fill:#0060af;fill-opacity:1;fill-rule:nonzero;stroke:none" id="path46"/>
        </g>
        <g id="g48" transform="translate(128.0335,198.1695)">
          <path d="M 0,0 C 0.027,-0.222 0.065,-0.47 0.076,-0.693 0.401,-2.875 0,-4.68 -2.459,-5.177 -6.082,-5.875 -6.775,-3.623 -7.409,-0.47 L -7.75,1.236 c -0.504,3.017 -0.715,5.302 2.822,6.006 1.987,0.362 3.303,-0.433 3.85,-2.416 0.087,-0.292 0.195,-0.584 0.233,-0.888 L -3.011,3.494 C -3.266,4.242 -3.591,5.573 -4.565,5.46 -6.32,5.248 -5.741,3.072 -5.563,2.162 l 0.651,-3.282 c 0.194,-0.985 0.585,-2.563 2.101,-2.259 1.229,0.244 0.694,2.161 0.585,2.941 z" style="fill:#0060af;fill-opacity:1;fill-rule:nonzero;stroke:none" id="path50"/>
        </g>
        <g id="g52" transform="translate(133.2763,200.3362)">
          <path d="M 0,0 1.841,0.536 -0.601,5.541 Z M -1.771,-5.79 -2.513,6.591 0.395,7.48 6.505,-3.287 4.208,-3.97 2.762,-1.234 0.216,-1.999 0.541,-5.108 Z" style="fill:#0060af;fill-opacity:1;fill-rule:nonzero;stroke:none" id="path54"/>
        </g>
        <g id="g56" transform="translate(59.5574,203.9057)">
          <path d="M 0,0 C 0.91,2.925 1.728,5.069 5.21,4.116 7.068,3.597 8.227,2.778 8.173,0.617 8.162,0.129 8.005,-0.357 7.902,-0.834 L 5.73,-0.237 C 6.017,0.958 6.196,1.907 4.729,2.361 3.028,2.828 2.611,0.764 2.378,-0.129 L 1.495,-3.374 C 1.219,-4.332 0.883,-5.93 2.378,-6.337 3.613,-6.672 4.366,-5.46 4.809,-3.682 l -1.51,0.4 0.52,1.875 3.564,-1.144 -1.691,-6.255 -1.64,0.444 0.368,1.327 H 4.376 c -0.753,-1.083 -1.673,-1.198 -2.48,-1.041 -3.564,0.96 -3.195,3.288 -2.34,6.397 z" style="fill:#0060af;fill-opacity:1;fill-rule:nonzero;stroke:none" id="path58"/>
        </g>
        <g id="g60" transform="translate(73.2285,200.4672)">
          <path d="M 0,0 1.625,-0.439 C 2.615,-0.585 3.162,-0.071 3.357,1.12 3.536,2.214 3.304,2.642 2.42,2.854 L 0.676,3.211 Z M -0.412,-1.842 -1.48,-6.927 -3.9,-6.409 -1.322,5.474 2.794,4.544 C 5.199,4.023 5.93,2.951 5.589,0.742 5.394,-0.527 4.771,-1.891 3.238,-1.777 l -0.01,0.016 C 4.511,-2.21 4.63,-2.86 4.397,-3.986 4.305,-4.47 3.628,-7.367 4.094,-7.839 L 4.111,-8.196 1.613,-7.54 c -0.102,0.807 0.25,2.253 0.39,3.05 0.141,0.714 0.363,1.711 -0.352,2.084 -0.569,0.304 -0.779,0.288 -1.414,0.435 z" style="fill:#0060af;fill-opacity:1;fill-rule:nonzero;stroke:none" id="path62"/>
        </g>
        <g id="g64" transform="translate(88.3011,203.2885)">
          <path d="M 0,0 2.388,-0.281 1.365,-8.629 c -0.499,-2.648 -1.527,-3.812 -4.436,-3.443 -2.968,0.373 -3.667,1.727 -3.494,4.392 l 1.04,8.346 2.405,-0.277 -1.034,-8.157 c -0.103,-0.887 -0.309,-2.203 1.262,-2.355 1.397,-0.109 1.722,0.817 1.874,1.966 z" style="fill:#0060af;fill-opacity:1;fill-rule:nonzero;stroke:none" id="path66"/>
        </g>
        <g id="g68" transform="translate(96.0402,197.4277)">
          <path d="M 0,0 1.214,-0.065 C 2.205,-0.102 2.86,0.288 2.941,1.739 2.99,3.132 2.465,3.364 1.186,3.424 L 0.222,3.456 Z M -2.713,-6.667 -1.998,5.276 2.594,5.071 C 4.761,4.967 5.33,3.196 5.26,1.506 5.2,0.483 4.875,-0.666 3.982,-1.289 3.25,-1.819 2.302,-1.949 1.43,-1.9 l -1.5,0.081 -0.293,-5.005 z" style="fill:#0060af;fill-opacity:1;fill-rule:nonzero;stroke:none" id="path70"/>
        </g>
        <g id="g72" transform="translate(416.9179,302.593)">
          <path d="m 0,0 -18.237,-33.098 c -6.877,5.59 -15.282,9.7 -26.007,9.7 -25.374,0 -35.686,-18.913 -35.686,-32.236 0,-9.896 6.476,-24.482 29.056,-24.482 9.474,0 22.954,6.593 26.827,9.593 l -18.03,-38.401 c -8.601,-1.717 -11.423,-2.777 -18.702,-3.001 -40.416,-1.206 -56.739,23.62 -56.728,48.984 0.026,33.537 29.842,74.325 79.264,74.325 3.033,0 6.737,-1.05 9.906,-2.209 l 3.201,4.095 z" style="fill:#0060af;fill-opacity:1;fill-rule:nonzero;stroke:none" id="path74"/>
        </g>
        <g id="g76" transform="translate(458.6219,278.0253)">
          <path d="M 0,0 -14.818,-34.993 H 0.444 Z M 33.537,36.797 38.698,-83.495 H 0.271 l -0.022,20.63 h -26.208 l -8.622,-20.63 h -41.672 l 43.572,85.9 -9.829,0.064 18.668,34.328 z" style="fill:#0060af;fill-opacity:1;fill-rule:nonzero;stroke:none" id="path78"/>
        </g>
        <g id="g80" transform="translate(240.6723,244.7967)">
          <path d="M 0,0 -5.15,-19.768 H 8.017 c 5.177,0 12.234,2.567 13.967,9.001 C 23.695,-4.316 18.756,0 13.594,0 Z m 15.804,21.254 c 3.938,0 10.892,0.996 12.625,8.617 1.907,8.27 -4.619,8.491 -7.745,8.491 L 9.5,38.413 5.601,21.254 Z M 34.473,70.025 C 53.511,69.924 64.263,59.588 64.263,44.667 64.263,30.91 52.915,18.734 40.465,12.436 53.29,7.724 54.393,-3.844 54.393,-12.024 54.393,-31.792 34.56,-50.266 8.774,-50.266 h -56.246 l 21.941,84.702 -9.007,0.048 18.42,35.541 c 0,0 35.118,0.104 50.591,0" style="fill:#0060af;fill-opacity:1;fill-rule:nonzero;stroke:none" id="path82"/>
        </g>
      </g>
    </g>
  </g>
</svg>